<svg width="21" height="20" viewBox="0 0 21 20" fill="none" xmlns="http://www.w3.org/2000/svg">
<path d="M20.0014 14.9201V17.9201C20.0025 18.1986 19.9455 18.4743 19.8339 18.7294C19.7223 18.9846 19.5587 19.2137 19.3535 19.402C19.1483 19.5902 18.906 19.7336 18.6421 19.8228C18.3783 19.912 18.0988 19.9452 17.8214 19.9201C14.7442 19.5857 11.7884 18.5342 9.1914 16.8501C6.77523 15.3148 4.72673 13.2663 3.1914 10.8501C1.50138 8.2413 0.449641 5.27109 0.121398 2.1801C0.0964085 1.90356 0.129273 1.62486 0.217898 1.36172C0.306524 1.09859 0.448969 0.856786 0.636164 0.651718C0.823359 0.44665 1.0512 0.282806 1.30519 0.170619C1.55918 0.0584315 1.83374 0.000358432 2.1114 9.69523e-05H5.1114C5.5967 -0.00467949 6.06719 0.167176 6.43516 0.48363C6.80313 0.800084 7.04348 1.23954 7.1114 1.7201C7.23802 2.68016 7.47285 3.62282 7.8114 4.5301C7.94594 4.88802 7.97506 5.27701 7.8953 5.65098C7.81555 6.02494 7.63026 6.36821 7.3614 6.6401L6.0914 7.9101C7.51495 10.4136 9.58785 12.4865 12.0914 13.9101L13.3614 12.6401C13.6333 12.3712 13.9766 12.1859 14.3505 12.1062C14.7245 12.0264 15.1135 12.0556 15.4714 12.1901C16.3787 12.5286 17.3213 12.7635 18.2814 12.8901C18.7672 12.9586 19.2108 13.2033 19.5279 13.5776C19.8451 13.9519 20.0136 14.4297 20.0014 14.9201Z" fill="#DF6751"/>
</svg>
