<svg width="238" height="239" viewBox="0 0 238 239" fill="none" xmlns="http://www.w3.org/2000/svg">
<g filter="url(#filter0_d_7_50957)">
<circle cx="119" cy="63" r="41" fill="white"/>
</g>
<g clip-path="url(#clip0_7_50957)">
<path d="M108.689 57.059V79.9653H101.061V57.059H108.689ZM109.174 49.9872L109.176 50.1258C109.176 51.1847 108.727 52.1376 108.009 52.8049L108.006 52.8063C107.583 53.1933 107.087 53.4925 106.548 53.6866C106.008 53.8807 105.436 53.966 104.863 53.9374H104.873H104.826C104.267 53.9639 103.708 53.8773 103.182 53.6827C102.657 53.4881 102.177 53.1896 101.77 52.8049L101.771 52.8063C101.393 52.4416 101.095 52.0019 100.897 51.5155C100.698 51.0291 100.604 50.5067 100.619 49.9816V49.9872L100.617 49.8897C100.617 48.8124 101.075 47.8425 101.806 47.1625L101.809 47.161C102.658 46.3878 103.779 45.983 104.927 46.0357H104.918C105.48 46.0082 106.042 46.0935 106.571 46.2865C107.099 46.4796 107.584 46.7764 107.996 47.1596L107.993 47.1568C108.367 47.5161 108.664 47.9474 108.867 48.4245C109.07 48.9017 109.174 49.415 109.174 49.9335V49.9929V49.99V49.9872ZM136.123 66.8396V79.9653H128.52V67.7148C128.597 66.3705 128.264 65.0344 127.566 63.8834L127.583 63.9131C127.254 63.45 126.811 63.08 126.296 62.8391C125.782 62.5983 125.214 62.4948 124.648 62.5389H124.659C123.774 62.5073 122.907 62.792 122.213 63.3419L122.221 63.3363C121.581 63.8526 121.079 64.5208 120.762 65.2802L120.751 65.3127C120.558 65.9204 120.472 66.5573 120.498 67.1945V67.1846V79.9681H112.895C112.926 73.82 112.941 68.835 112.941 65.013C112.941 61.1911 112.934 58.9106 112.919 58.1717L112.896 57.0618H120.5V60.3899H120.453C120.755 59.9022 121.068 59.4794 121.411 59.0836L121.4 59.0963C121.797 58.6594 122.224 58.265 122.684 57.9115L122.706 57.8946C123.295 57.4432 123.962 57.1056 124.674 56.8993L124.717 56.8894C125.542 56.6486 126.398 56.5276 127.257 56.5303H127.369H127.363C128.549 56.4803 129.73 56.6885 130.827 57.1403C131.924 57.5922 132.91 58.2769 133.716 59.1472L133.72 59.1528C135.324 60.9022 136.126 63.464 136.126 66.8382L136.123 66.8396Z" fill="#699BF7"/>
</g>
<defs>
<filter id="filter0_d_7_50957" x="0.241379" y="0.793102" width="237.517" height="237.517" filterUnits="userSpaceOnUse" color-interpolation-filters="sRGB">
<feFlood flood-opacity="0" result="BackgroundImageFix"/>
<feColorMatrix in="SourceAlpha" type="matrix" values="0 0 0 0 0 0 0 0 0 0 0 0 0 0 0 0 0 0 127 0" result="hardAlpha"/>
<feOffset dy="56.5517"/>
<feGaussianBlur stdDeviation="38.8793"/>
<feComposite in2="hardAlpha" operator="out"/>
<feColorMatrix type="matrix" values="0 0 0 0 0 0 0 0 0 0 0 0 0 0 0 0 0 0 0.15 0"/>
<feBlend mode="normal" in2="BackgroundImageFix" result="effect1_dropShadow_7_50957"/>
<feBlend mode="normal" in="SourceGraphic" in2="effect1_dropShadow_7_50957" result="shape"/>
</filter>
<clipPath id="clip0_7_50957">
<rect width="35.3448" height="33.931" fill="white" transform="translate(100.621 46.0344)"/>
</clipPath>
</defs>
</svg>
